<?xml version="1.0" standalone="no"?>
<!DOCTYPE svg PUBLIC "-//W3C//DTD SVG 20010904//EN"
 "http://www.w3.org/TR/2001/REC-SVG-20010904/DTD/svg10.dtd">
<svg version="1.0" xmlns="http://www.w3.org/2000/svg"
 width="200.000000pt" height="155.000000pt" viewBox="0 0 200.000000 155.000000"
 preserveAspectRatio="xMidYMid meet">
<metadata>

</metadata>
<g transform="translate(0.000000,155.000000) scale(0.100000,-0.100000)"
fill="#000000" stroke="none">
<path d="M0 775 l0 -775 1000 0 1000 0 0 775 0 775 -1000 0 -1000 0 0 -775z
m1076 336 c52 -24 101 -83 119 -145 21 -69 21 -353 0 -422 -18 -62 -67 -121
-119 -145 -51 -23 -168 -25 -219 -4 -52 21 -103 79 -124 139 -26 74 -26 368 0
442 20 57 73 119 121 140 47 20 173 17 222 -5z m590 0 c52 -24 101 -83 119
-145 21 -69 21 -353 0 -422 -18 -62 -67 -121 -119 -145 -51 -23 -168 -25 -219
-4 -52 21 -103 79 -124 139 -26 74 -26 368 0 442 20 57 73 119 121 140 47 20
173 17 222 -5z m-1206 -356 l0 -365 -75 0 -75 0 0 295 0 295 -75 0 -75 0 0 59
0 58 103 10 c56 5 123 11 150 11 l47 2 0 -365z"/>
<path d="M917 999 c-38 -22 -47 -70 -47 -244 0 -176 9 -223 48 -244 57 -31
116 3 133 76 11 49 11 287 0 336 -17 73 -79 108 -134 76z"/>
<path d="M1507 999 c-38 -22 -47 -70 -47 -244 0 -176 9 -223 48 -244 35 -18
77 -13 101 13 32 34 41 82 41 231 0 149 -9 197 -41 231 -24 26 -70 32 -102 13z"/>
</g>
</svg>
